<svg width="530" height="530" class="container" title="svg_title" version="1.1" xmlns="http://www.w3.org/2000/svg"><g transform="translate(265, 265)"><path class="core" d="M-41.63817733725012,-53.17375832791139C-63.6165281385866,-50.66564020956363,-97.74331647330273,-55.44434959316195,-112.41571503194427,-44.98029127536592C-127.0881135905858,-34.5162329575699,-122.30612237315275,-8.809406938379523,-118.5951969581645,17.05658375988028C-114.88427154317623,42.922574458140076,-112.24441193063275,68.9477298354693,-98.74053310878175,86.84991116601292C-85.23665428693076,104.75209249655653,-60.86875625577224,114.5312997803145,-39.051015983583,110.79374767892875C-17.233275711393762,107.05619557754301,2.0343068018261974,89.80188409101352,23.119223496979938,82.08228828333128C44.20414019213368,74.36269247564901,67.1063910692212,76.177812346814,86.87160089745039,67.43881661305332C106.6368107256796,58.69982087929264,123.26497950505048,39.40670954060629,124.39655178896783,19.04018751497974C125.52812407288519,-1.3263345106468118,111.16309986134904,-22.76626722321357,96.85825543820545,-40.13942580405324C82.55341101506185,-57.51258438489291,68.30874638031084,-70.81896883400549,52.175733772008705,-86.49271569931405C36.04272116370656,-102.16646256462259,18.021360581853298,-120.20757184612712,9.01068029092666,-118.7319742467486C2.257410731057296e-14,-117.25637664737006,1.128705365528648e-14,-96.26407216710845,-4.914956633978407,-80.87044711683072C-9.829913267956824,-65.47682206655298,-19.65982653591365,-55.681876446259146,-41.63817733725012,-53.17375832791139" fill="rgb(0, 0, 0)" stroke="none" transform="scale(0.20000000298023224,0.20000000298023224)" stroke-width="5"></path><path class="layers" d="M-41.63817733725012,-53.17375832791139C-63.6165281385866,-50.66564020956363,-97.74331647330273,-55.44434959316195,-112.41571503194427,-44.98029127536592C-127.0881135905858,-34.5162329575699,-122.30612237315275,-8.809406938379523,-118.5951969581645,17.05658375988028C-114.88427154317623,42.922574458140076,-112.24441193063275,68.9477298354693,-98.74053310878175,86.84991116601292C-85.23665428693076,104.75209249655653,-60.86875625577224,114.5312997803145,-39.051015983583,110.79374767892875C-17.233275711393762,107.05619557754301,2.0343068018261974,89.80188409101352,23.119223496979938,82.08228828333128C44.20414019213368,74.36269247564901,67.1063910692212,76.177812346814,86.87160089745039,67.43881661305332C106.6368107256796,58.69982087929264,123.26497950505048,39.40670954060629,124.39655178896783,19.04018751497974C125.52812407288519,-1.3263345106468118,111.16309986134904,-22.76626722321357,96.85825543820545,-40.13942580405324C82.55341101506185,-57.51258438489291,68.30874638031084,-70.81896883400549,52.175733772008705,-86.49271569931405C36.04272116370656,-102.16646256462259,18.021360581853298,-120.20757184612712,9.01068029092666,-118.7319742467486C2.257410731057296e-14,-117.25637664737006,1.128705365528648e-14,-96.26407216710845,-4.914956633978407,-80.87044711683072C-9.829913267956824,-65.47682206655298,-19.65982653591365,-55.681876446259146,-41.63817733725012,-53.17375832791139" fill="none" stroke="rgb(0, 0, 0)" transform="scale(0.4000000059604645,0.4000000059604645)" stroke-width="5"></path><path class="layers" d="M-41.63817733725012,-53.17375832791139C-63.6165281385866,-50.66564020956363,-97.74331647330273,-55.44434959316195,-112.41571503194427,-44.98029127536592C-127.0881135905858,-34.5162329575699,-122.30612237315275,-8.809406938379523,-118.5951969581645,17.05658375988028C-114.88427154317623,42.922574458140076,-112.24441193063275,68.9477298354693,-98.74053310878175,86.84991116601292C-85.23665428693076,104.75209249655653,-60.86875625577224,114.5312997803145,-39.051015983583,110.79374767892875C-17.233275711393762,107.05619557754301,2.0343068018261974,89.80188409101352,23.119223496979938,82.08228828333128C44.20414019213368,74.36269247564901,67.1063910692212,76.177812346814,86.87160089745039,67.43881661305332C106.6368107256796,58.69982087929264,123.26497950505048,39.40670954060629,124.39655178896783,19.04018751497974C125.52812407288519,-1.3263345106468118,111.16309986134904,-22.76626722321357,96.85825543820545,-40.13942580405324C82.55341101506185,-57.51258438489291,68.30874638031084,-70.81896883400549,52.175733772008705,-86.49271569931405C36.04272116370656,-102.16646256462259,18.021360581853298,-120.20757184612712,9.01068029092666,-118.7319742467486C2.257410731057296e-14,-117.25637664737006,1.128705365528648e-14,-96.26407216710845,-4.914956633978407,-80.87044711683072C-9.829913267956824,-65.47682206655298,-19.65982653591365,-55.681876446259146,-41.63817733725012,-53.17375832791139" fill="none" stroke="rgb(0, 0, 0)" transform="scale(0.6000000238418579,0.6000000238418579)" stroke-width="5"></path><path class="layers" d="M-41.63817733725012,-53.17375832791139C-63.6165281385866,-50.66564020956363,-97.74331647330273,-55.44434959316195,-112.41571503194427,-44.98029127536592C-127.0881135905858,-34.5162329575699,-122.30612237315275,-8.809406938379523,-118.5951969581645,17.05658375988028C-114.88427154317623,42.922574458140076,-112.24441193063275,68.9477298354693,-98.74053310878175,86.84991116601292C-85.23665428693076,104.75209249655653,-60.86875625577224,114.5312997803145,-39.051015983583,110.79374767892875C-17.233275711393762,107.05619557754301,2.0343068018261974,89.80188409101352,23.119223496979938,82.08228828333128C44.20414019213368,74.36269247564901,67.1063910692212,76.177812346814,86.87160089745039,67.43881661305332C106.6368107256796,58.69982087929264,123.26497950505048,39.40670954060629,124.39655178896783,19.04018751497974C125.52812407288519,-1.3263345106468118,111.16309986134904,-22.76626722321357,96.85825543820545,-40.13942580405324C82.55341101506185,-57.51258438489291,68.30874638031084,-70.81896883400549,52.175733772008705,-86.49271569931405C36.04272116370656,-102.16646256462259,18.021360581853298,-120.20757184612712,9.01068029092666,-118.7319742467486C2.257410731057296e-14,-117.25637664737006,1.128705365528648e-14,-96.26407216710845,-4.914956633978407,-80.87044711683072C-9.829913267956824,-65.47682206655298,-19.65982653591365,-55.681876446259146,-41.63817733725012,-53.17375832791139" fill="none" stroke="rgb(0, 0, 0)" transform="scale(0.800000011920929,0.800000011920929)" stroke-width="5"></path><path class="layers" d="M-41.63817733725012,-53.17375832791139C-63.6165281385866,-50.66564020956363,-97.74331647330273,-55.44434959316195,-112.41571503194427,-44.98029127536592C-127.0881135905858,-34.5162329575699,-122.30612237315275,-8.809406938379523,-118.5951969581645,17.05658375988028C-114.88427154317623,42.922574458140076,-112.24441193063275,68.9477298354693,-98.74053310878175,86.84991116601292C-85.23665428693076,104.75209249655653,-60.86875625577224,114.5312997803145,-39.051015983583,110.79374767892875C-17.233275711393762,107.05619557754301,2.0343068018261974,89.80188409101352,23.119223496979938,82.08228828333128C44.20414019213368,74.36269247564901,67.1063910692212,76.177812346814,86.87160089745039,67.43881661305332C106.6368107256796,58.69982087929264,123.26497950505048,39.40670954060629,124.39655178896783,19.04018751497974C125.52812407288519,-1.3263345106468118,111.16309986134904,-22.76626722321357,96.85825543820545,-40.13942580405324C82.55341101506185,-57.51258438489291,68.30874638031084,-70.81896883400549,52.175733772008705,-86.49271569931405C36.04272116370656,-102.16646256462259,18.021360581853298,-120.20757184612712,9.01068029092666,-118.7319742467486C2.257410731057296e-14,-117.25637664737006,1.128705365528648e-14,-96.26407216710845,-4.914956633978407,-80.87044711683072C-9.829913267956824,-65.47682206655298,-19.65982653591365,-55.681876446259146,-41.63817733725012,-53.17375832791139" fill="none" stroke="rgb(0, 0, 0)" transform="" stroke-width="5"></path><path class="layers" d="M-41.63817733725012,-53.17375832791139C-63.6165281385866,-50.66564020956363,-97.74331647330273,-55.44434959316195,-112.41571503194427,-44.98029127536592C-127.0881135905858,-34.5162329575699,-122.30612237315275,-8.809406938379523,-118.5951969581645,17.05658375988028C-114.88427154317623,42.922574458140076,-112.24441193063275,68.9477298354693,-98.74053310878175,86.84991116601292C-85.23665428693076,104.75209249655653,-60.86875625577224,114.5312997803145,-39.051015983583,110.79374767892875C-17.233275711393762,107.05619557754301,2.0343068018261974,89.80188409101352,23.119223496979938,82.08228828333128C44.20414019213368,74.36269247564901,67.1063910692212,76.177812346814,86.87160089745039,67.43881661305332C106.6368107256796,58.69982087929264,123.26497950505048,39.40670954060629,124.39655178896783,19.04018751497974C125.52812407288519,-1.3263345106468118,111.16309986134904,-22.76626722321357,96.85825543820545,-40.13942580405324C82.55341101506185,-57.51258438489291,68.30874638031084,-70.81896883400549,52.175733772008705,-86.49271569931405C36.04272116370656,-102.16646256462259,18.021360581853298,-120.20757184612712,9.01068029092666,-118.7319742467486C2.257410731057296e-14,-117.25637664737006,1.128705365528648e-14,-96.26407216710845,-4.914956633978407,-80.87044711683072C-9.829913267956824,-65.47682206655298,-19.65982653591365,-55.681876446259146,-41.63817733725012,-53.17375832791139" fill="none" stroke="rgb(0, 0, 0)" transform="scale(1.2000000476837158,1.2000000476837158)" stroke-width="5"></path><path class="layers" d="M-41.63817733725012,-53.17375832791139C-63.6165281385866,-50.66564020956363,-97.74331647330273,-55.44434959316195,-112.41571503194427,-44.98029127536592C-127.0881135905858,-34.5162329575699,-122.30612237315275,-8.809406938379523,-118.5951969581645,17.05658375988028C-114.88427154317623,42.922574458140076,-112.24441193063275,68.9477298354693,-98.74053310878175,86.84991116601292C-85.23665428693076,104.75209249655653,-60.86875625577224,114.5312997803145,-39.051015983583,110.79374767892875C-17.233275711393762,107.05619557754301,2.0343068018261974,89.80188409101352,23.119223496979938,82.08228828333128C44.20414019213368,74.36269247564901,67.1063910692212,76.177812346814,86.87160089745039,67.43881661305332C106.6368107256796,58.69982087929264,123.26497950505048,39.40670954060629,124.39655178896783,19.04018751497974C125.52812407288519,-1.3263345106468118,111.16309986134904,-22.76626722321357,96.85825543820545,-40.13942580405324C82.55341101506185,-57.51258438489291,68.30874638031084,-70.81896883400549,52.175733772008705,-86.49271569931405C36.04272116370656,-102.16646256462259,18.021360581853298,-120.20757184612712,9.01068029092666,-118.7319742467486C2.257410731057296e-14,-117.25637664737006,1.128705365528648e-14,-96.26407216710845,-4.914956633978407,-80.87044711683072C-9.829913267956824,-65.47682206655298,-19.65982653591365,-55.681876446259146,-41.63817733725012,-53.17375832791139" fill="none" stroke="rgb(0, 0, 0)" transform="scale(1.399999976158142,1.399999976158142)" stroke-width="5"></path><path class="layers" d="M-41.63817733725012,-53.17375832791139C-63.6165281385866,-50.66564020956363,-97.74331647330273,-55.44434959316195,-112.41571503194427,-44.98029127536592C-127.0881135905858,-34.5162329575699,-122.30612237315275,-8.809406938379523,-118.5951969581645,17.05658375988028C-114.88427154317623,42.922574458140076,-112.24441193063275,68.9477298354693,-98.74053310878175,86.84991116601292C-85.23665428693076,104.75209249655653,-60.86875625577224,114.5312997803145,-39.051015983583,110.79374767892875C-17.233275711393762,107.05619557754301,2.0343068018261974,89.80188409101352,23.119223496979938,82.08228828333128C44.20414019213368,74.36269247564901,67.1063910692212,76.177812346814,86.87160089745039,67.43881661305332C106.6368107256796,58.69982087929264,123.26497950505048,39.40670954060629,124.39655178896783,19.04018751497974C125.52812407288519,-1.3263345106468118,111.16309986134904,-22.76626722321357,96.85825543820545,-40.13942580405324C82.55341101506185,-57.51258438489291,68.30874638031084,-70.81896883400549,52.175733772008705,-86.49271569931405C36.04272116370656,-102.16646256462259,18.021360581853298,-120.20757184612712,9.01068029092666,-118.7319742467486C2.257410731057296e-14,-117.25637664737006,1.128705365528648e-14,-96.26407216710845,-4.914956633978407,-80.87044711683072C-9.829913267956824,-65.47682206655298,-19.65982653591365,-55.681876446259146,-41.63817733725012,-53.17375832791139" fill="none" stroke="rgb(0, 0, 0)" transform="scale(1.600000023841858,1.600000023841858)" stroke-width="5"></path><path class="layers" d="M-41.63817733725012,-53.17375832791139C-63.6165281385866,-50.66564020956363,-97.74331647330273,-55.44434959316195,-112.41571503194427,-44.98029127536592C-127.0881135905858,-34.5162329575699,-122.30612237315275,-8.809406938379523,-118.5951969581645,17.05658375988028C-114.88427154317623,42.922574458140076,-112.24441193063275,68.9477298354693,-98.74053310878175,86.84991116601292C-85.23665428693076,104.75209249655653,-60.86875625577224,114.5312997803145,-39.051015983583,110.79374767892875C-17.233275711393762,107.05619557754301,2.0343068018261974,89.80188409101352,23.119223496979938,82.08228828333128C44.20414019213368,74.36269247564901,67.1063910692212,76.177812346814,86.87160089745039,67.43881661305332C106.6368107256796,58.69982087929264,123.26497950505048,39.40670954060629,124.39655178896783,19.04018751497974C125.52812407288519,-1.3263345106468118,111.16309986134904,-22.76626722321357,96.85825543820545,-40.13942580405324C82.55341101506185,-57.51258438489291,68.30874638031084,-70.81896883400549,52.175733772008705,-86.49271569931405C36.04272116370656,-102.16646256462259,18.021360581853298,-120.20757184612712,9.01068029092666,-118.7319742467486C2.257410731057296e-14,-117.25637664737006,1.128705365528648e-14,-96.26407216710845,-4.914956633978407,-80.87044711683072C-9.829913267956824,-65.47682206655298,-19.65982653591365,-55.681876446259146,-41.63817733725012,-53.17375832791139" fill="none" stroke="rgb(0, 0, 0)" transform="scale(1.7999999523162842,1.7999999523162842)" stroke-width="5"></path><path class="layers" d="M-41.63817733725012,-53.17375832791139C-63.6165281385866,-50.66564020956363,-97.74331647330273,-55.44434959316195,-112.41571503194427,-44.98029127536592C-127.0881135905858,-34.5162329575699,-122.30612237315275,-8.809406938379523,-118.5951969581645,17.05658375988028C-114.88427154317623,42.922574458140076,-112.24441193063275,68.9477298354693,-98.74053310878175,86.84991116601292C-85.23665428693076,104.75209249655653,-60.86875625577224,114.5312997803145,-39.051015983583,110.79374767892875C-17.233275711393762,107.05619557754301,2.0343068018261974,89.80188409101352,23.119223496979938,82.08228828333128C44.20414019213368,74.36269247564901,67.1063910692212,76.177812346814,86.87160089745039,67.43881661305332C106.6368107256796,58.69982087929264,123.26497950505048,39.40670954060629,124.39655178896783,19.04018751497974C125.52812407288519,-1.3263345106468118,111.16309986134904,-22.76626722321357,96.85825543820545,-40.13942580405324C82.55341101506185,-57.51258438489291,68.30874638031084,-70.81896883400549,52.175733772008705,-86.49271569931405C36.04272116370656,-102.16646256462259,18.021360581853298,-120.20757184612712,9.01068029092666,-118.7319742467486C2.257410731057296e-14,-117.25637664737006,1.128705365528648e-14,-96.26407216710845,-4.914956633978407,-80.87044711683072C-9.829913267956824,-65.47682206655298,-19.65982653591365,-55.681876446259146,-41.63817733725012,-53.17375832791139" fill="none" stroke="rgb(0, 0, 0)" transform="scale(2,2)" stroke-width="5"></path></g></svg>